<?xml version="1.0" encoding="UTF-8"?>
<mxfile host="app.diagrams.net">
  <diagram name="Lab Topology" id="lab-topology">
    <mxGraphModel dx="1000" dy="1000" grid="1" gridSize="10" guides="1" tooltips="1" connect="1" arrows="1" fold="1" page="1" pageScale="1" pageWidth="2000" pageHeight="2000" math="0" shadow="0">
      <root>
        <mxCell id="0" />
        <mxCell id="1" parent="0" />
        <!-- Internet -->
        <mxCell id="2" value="Internet" style="ellipse;whiteSpace=wrap;html=1;" vertex="1" parent="1">
          <mxGeometry x="60" y="60" width="100" height="60" as="geometry" />
        </mxCell>
        <!-- Router/FW -->
        <mxCell id="3" value="Router/FW Meraki MX64&#xa;192.168.10.1" style="rounded=1;whiteSpace=wrap;html=1;fillColor=#e1eaff;" vertex="1" parent="1">
          <mxGeometry x="60" y="150" width="140" height="50" as="geometry" />
        </mxCell>
        <mxCell id="4" style="edgeStyle=orthogonalEdgeStyle;endArrow=block;html=1;" edge="1" parent="1" source="2" target="3">
          <mxGeometry relative="1" as="geometry" />
        </mxCell>
        <!-- Switches -->
        <mxCell id="5" value="switch2&#xa;192.168.10.2" style="rounded=1;whiteSpace=wrap;html=1;fillColor=#e1eaff;" vertex="1" parent="1">
          <mxGeometry x="60" y="220" width="120" height="40" as="geometry" />
        </mxCell>
        <mxCell id="6" value="switch3&#xa;192.168.10.3" style="rounded=1;whiteSpace=wrap;html=1;fillColor=#e1eaff;" vertex="1" parent="1">
          <mxGeometry x="60" y="270" width="120" height="40" as="geometry" />
        </mxCell>
        <mxCell id="7" style="edgeStyle=orthogonalEdgeStyle;endArrow=block;html=1;" edge="1" parent="1" source="3" target="5">
          <mxGeometry relative="1" as="geometry" />
        </mxCell>
        <mxCell id="8" style="edgeStyle=orthogonalEdgeStyle;endArrow=block;html=1;" edge="1" parent="1" source="3" target="6">
          <mxGeometry relative="1" as="geometry" />
        </mxCell>
        <!-- Proxmox -->
        <mxCell id="9" value="proxmox4&#xa;192.168.10.4" style="rounded=1;whiteSpace=wrap;html=1;fillColor=#f7f7d1;" vertex="1" parent="1">
          <mxGeometry x="60" y="330" width="120" height="40" as="geometry" />
        </mxCell>
        <mxCell id="10" value="proxmox5&#xa;192.168.10.5" style="rounded=1;whiteSpace=wrap;html=1;fillColor=#f7f7d1;" vertex="1" parent="1">
          <mxGeometry x="60" y="380" width="120" height="40" as="geometry" />
        </mxCell>
        <mxCell id="11" value="proxmox6&#xa;192.168.10.6" style="rounded=1;whiteSpace=wrap;html=1;fillColor=#f7f7d1;" vertex="1" parent="1">
          <mxGeometry x="60" y="430" width="120" height="40" as="geometry" />
        </mxCell>
        <mxCell id="12" value="proxmox7&#xa;192.168.10.7" style="rounded=1;whiteSpace=wrap;html=1;fillColor=#f7f7d1;" vertex="1" parent="1">
          <mxGeometry x="60" y="480" width="120" height="40" as="geometry" />
        </mxCell>
        <mxCell id="13" style="edgeStyle=orthogonalEdgeStyle;endArrow=block;html=1;" edge="1" parent="1" source="5" target="9">
          <mxGeometry relative="1" as="geometry" />
        </mxCell>
        <mxCell id="14" style="edgeStyle=orthogonalEdgeStyle;endArrow=block;html=1;" edge="1" parent="1" source="5" target="10">
          <mxGeometry relative="1" as="geometry" />
        </mxCell>
        <mxCell id="15" style="edgeStyle=orthogonalEdgeStyle;endArrow=block;html=1;" edge="1" parent="1" source="5" target="11">
          <mxGeometry relative="1" as="geometry" />
        </mxCell>
        <mxCell id="16" style="edgeStyle=orthogonalEdgeStyle;endArrow=block;html=1;" edge="1" parent="1" source="5" target="12">
          <mxGeometry relative="1" as="geometry" />
        </mxCell>
        <!-- WLCs -->
        <mxCell id="17" value="WLC8&#xa;192.168.10.8" style="rounded=1;whiteSpace=wrap;html=1;fillColor=#d1f7e1;" vertex="1" parent="1">
          <mxGeometry x="60" y="540" width="120" height="40" as="geometry" />
        </mxCell>
        <mxCell id="18" value="WLC9&#xa;192.168.10.9" style="rounded=1;whiteSpace=wrap;html=1;fillColor=#d1f7e1;" vertex="1" parent="1">
          <mxGeometry x="60" y="590" width="120" height="40" as="geometry" />
        </mxCell>
        <mxCell id="19" value="WLC10&#xa;192.168.10.10" style="rounded=1;whiteSpace=wrap;html=1;fillColor=#d1f7e1;" vertex="1" parent="1">
          <mxGeometry x="60" y="640" width="120" height="40" as="geometry" />
        </mxCell>
        <mxCell id="20" style="edgeStyle=orthogonalEdgeStyle;endArrow=block;html=1;" edge="1" parent="1" source="6" target="17">
          <mxGeometry relative="1" as="geometry" />
        </mxCell>
        <mxCell id="21" style="edgeStyle=orthogonalEdgeStyle;endArrow=block;html=1;" edge="1" parent="1" source="6" target="18">
          <mxGeometry relative="1" as="geometry" />
        </mxCell>
        <mxCell id="22" style="edgeStyle=orthogonalEdgeStyle;endArrow=block;html=1;" edge="1" parent="1" source="6" target="19">
          <mxGeometry relative="1" as="geometry" />
        </mxCell>
        <!-- Ubuntu group -->
        <mxCell id="23" value="ubuntu11 ... ubuntu18&#xa;192.168.10.11 ... 18" style="rounded=1;whiteSpace=wrap;html=1;fillColor=#f7e1e1;" vertex="1" parent="1">
          <mxGeometry x="60" y="700" width="160" height="40" as="geometry" />
        </mxCell>
        <mxCell id="24" style="edgeStyle=orthogonalEdgeStyle;endArrow=block;html=1;" edge="1" parent="1" source="6" target="23">
          <mxGeometry relative="1" as="geometry" />
        </mxCell>
        <!-- VLAN 10 divider -->
        <mxCell id="25" value="VLAN 10" style="rounded=0;whiteSpace=wrap;html=1;fillColor=#b3d1f7;strokeWidth=4;" vertex="1" parent="1">
          <mxGeometry x="250" y="60" width="20" height="700" as="geometry" />
        </mxCell>
        <!-- Shared servers -->
        <mxCell id="26" value="wlc51&#xa;192.168.10.51" style="rounded=1;whiteSpace=wrap;html=1;fillColor=#e1eaff;" vertex="1" parent="1">
          <mxGeometry x="320" y="100" width="120" height="40" as="geometry" />
        </mxCell>
        <mxCell id="27" value="ubuntu11&#xa;192.168.10.11" style="rounded=1;whiteSpace=wrap;html=1;fillColor=#f7e1e1;" vertex="1" parent="1">
          <mxGeometry x="320" y="150" width="120" height="40" as="geometry" />
        </mxCell>
        <!-- ... more shared servers and pods can be added similarly ... -->
        <!-- Example pod -->
        <mxCell id="28" value="Pod 20 - Harsha&#xa;Ubuntu IP: 192.168.10.20" style="rounded=1;whiteSpace=wrap;html=1;fillColor=#e1f7fa;" vertex="1" parent="1">
          <mxGeometry x="500" y="100" width="160" height="40" as="geometry" />
        </mxCell>
        <!-- Example connection from VLAN 10 to shared server -->
        <mxCell id="29" style="edgeStyle=orthogonalEdgeStyle;endArrow=block;html=1;" edge="1" parent="1" source="25" target="26">
          <mxGeometry relative="1" as="geometry" />
        </mxCell>
        <!-- Example connection from VLAN 10 to pod -->
        <mxCell id="30" style="edgeStyle=orthogonalEdgeStyle;endArrow=block;html=1;" edge="1" parent="1" source="25" target="28">
          <mxGeometry relative="1" as="geometry" />
        </mxCell>
      </root>
    </mxGraphModel>
  </diagram>
</mxfile>
